<svg viewBox="0 0 160 160" xmlns="http://www.w3.org/2000/svg">
  <defs>
    <linearGradient id="g2" x1="0" y1="0" x2="1" y2="1">
      <stop offset="0%" stop-color="#0f172a"/>
      <stop offset="100%" stop-color="#1d4ed8"/>
    </linearGradient>
  </defs>
  <rect width="160" height="160" rx="32" fill="url(#g2)"/>
  <circle cx="52" cy="64" r="20" fill="#1e293b"/>
  <rect x="40" y="54" width="24" height="20" rx="4" fill="#38bdf8"/>
  <rect x="48" y="58" width="8" height="4" rx="2" fill="#0f172a"/>
  <rect x="68" y="46" width="52" height="12" rx="6" fill="#0f172a"/>
  <rect x="68" y="62" width="52" height="36" rx="10" fill="#020617"/>
  <rect x="74" y="68" width="12" height="4" rx="2" fill="#22c55e"/>
  <rect x="74" y="76" width="22" height="4" rx="2" fill="#38bdf8"/>
  <rect x="74" y="84" width="30" height="4" rx="2" fill="#e5e7eb"/>
  <circle cx="112" cy="82" r="8" fill="#1d4ed8"/>
  <path d="M112 76v4M112 84v4M108 82h4M112 82h4" stroke="white" stroke-width="1.5" stroke-linecap="round"/>
</svg>
